<svg width="16" height="16" viewBox="0 0 16 16" fill="none" xmlns="http://www.w3.org/2000/svg">
<path d="M8.00065 2.66671C5.05513 2.66671 2.66732 5.05452 2.66732 8.00004C2.66732 10.9456 5.05513 13.3334 8.00065 13.3334C10.9462 13.3334 13.334 10.9456 13.334 8.00004C13.334 5.05452 10.9462 2.66671 8.00065 2.66671ZM1.33398 8.00004C1.33398 4.31814 4.31875 1.33337 8.00065 1.33337C11.6825 1.33337 14.6673 4.31814 14.6673 8.00004C14.6673 11.6819 11.6825 14.6667 8.00065 14.6667C4.31875 14.6667 1.33398 11.6819 1.33398 8.00004Z" fill="#8A8A8A"/>
<path d="M8.00065 6.66671C8.36884 6.66671 8.66732 6.96518 8.66732 7.33337V11.3334C8.66732 11.7016 8.36884 12 8.00065 12C7.63246 12 7.33398 11.7016 7.33398 11.3334V7.33337C7.33398 6.96518 7.63246 6.66671 8.00065 6.66671Z" fill="#8A8A8A"/>
<path d="M9.00065 5.00004C9.00065 5.55233 8.55294 6.00004 8.00065 6.00004C7.44837 6.00004 7.00065 5.55233 7.00065 5.00004C7.00065 4.44776 7.44837 4.00004 8.00065 4.00004C8.55294 4.00004 9.00065 4.44776 9.00065 5.00004Z" fill="#8A8A8A"/>
</svg>
