<svg width="25" height="24" viewBox="0 0 25 24" fill="none" xmlns="http://www.w3.org/2000/svg">
<path d="M12.0038 21.83C10.0596 21.83 8.15911 21.2535 6.54258 20.1733C4.92604 19.0932 3.66611 17.558 2.9221 15.7618C2.17809 13.9656 1.98342 11.9891 2.36271 10.0822C2.74201 8.17542 3.67822 6.42388 5.05297 5.04913C6.42772 3.67438 8.17926 2.73816 10.0861 2.35887C11.9929 1.97958 13.9694 2.17424 15.7656 2.91825C17.5618 3.66226 19.097 4.9222 20.1772 6.53873C21.2573 8.15527 21.8338 10.0558 21.8338 12C21.8312 14.6063 20.7947 17.105 18.9518 18.9479C17.1089 20.7908 14.6101 21.8273 12.0038 21.83ZM12.0038 3.16999C10.2574 3.16999 8.55023 3.68786 7.09815 4.65811C5.64606 5.62836 4.5143 7.00742 3.84598 8.62089C3.17765 10.2344 3.00279 12.0098 3.3435 13.7226C3.68421 15.4355 4.52518 17.0088 5.76008 18.2437C6.99498 19.4786 8.56833 20.3196 10.2812 20.6603C11.994 21.001 13.7695 20.8262 15.3829 20.1578C16.9964 19.4895 18.3755 18.3578 19.3457 16.9057C20.316 15.4536 20.8338 13.7464 20.8338 12C20.8312 9.65894 19.9 7.41453 18.2447 5.75916C16.5893 4.10379 14.3449 3.17263 12.0038 3.16999Z" fill="white"/>
<path d="M7.38286 17.12C7.31465 17.1277 7.24557 17.121 7.18011 17.1004C7.11465 17.0797 7.05426 17.0455 7.00286 17C6.93764 16.9344 6.8919 16.852 6.87071 16.762C6.84953 16.6719 6.85373 16.5778 6.88286 16.49L8.88286 10.55C8.90295 10.4859 8.93656 10.4268 8.98141 10.3768C9.02626 10.3268 9.08131 10.2869 9.14286 10.26L16.4029 6.95998C16.4952 6.91893 16.5979 6.90682 16.6972 6.92527C16.7966 6.94372 16.8881 6.99185 16.9595 7.06332C17.031 7.13479 17.0791 7.22624 17.0976 7.32562C17.116 7.42499 17.1039 7.52763 17.0629 7.61998L13.7629 14.88C13.7359 14.9415 13.6961 14.9966 13.6461 15.0414C13.596 15.0863 13.537 15.1199 13.4729 15.14L7.53286 17.14C7.48205 17.1427 7.43119 17.1359 7.38286 17.12ZM9.77286 11.05L8.17286 15.83L13.0029 14.23L15.6629 8.38998L9.77286 11.05Z" fill="white"/>
<path d="M11.534 13C11.4023 12.997 11.2769 12.9433 11.184 12.85C11.1369 12.8046 11.0993 12.7503 11.0736 12.6901C11.0478 12.63 11.0344 12.5654 11.034 12.5C11.0199 12.434 11.0199 12.3659 11.034 12.3C11.0576 12.2388 11.0953 12.184 11.144 12.14C11.1894 12.0955 11.244 12.0613 11.304 12.04C11.3937 12.0008 11.4931 11.9894 11.5893 12.0072C11.6855 12.025 11.7742 12.0713 11.844 12.14C11.8926 12.184 11.9303 12.2388 11.954 12.3C11.968 12.3659 11.968 12.434 11.954 12.5C11.9548 12.5656 11.9418 12.6306 11.916 12.6908C11.8902 12.7511 11.852 12.8053 11.804 12.85C11.7316 12.9267 11.6373 12.9791 11.534 13Z" fill="white"/>
</svg>
