<svg width="29" height="28" viewBox="0 0 29 28" fill="none" xmlns="http://www.w3.org/2000/svg">
<path fill-rule="evenodd" clip-rule="evenodd" d="M14.0039 2C7.37649 2 2.00391 7.37258 2.00391 14C2.00391 20.6274 7.37649 26 14.0039 26C20.6313 26 26.0039 20.6274 26.0039 14C26.0039 7.37258 20.6313 2 14.0039 2ZM9.45654 7.19992H18.9514C19.7521 7.19992 20.404 7.84392 20.404 8.64192V21.1999L18.8805 19.8699L18.0232 19.0859L17.1162 18.2529L17.4917 19.5479H9.45654C8.65586 19.5479 8.00397 18.9039 8.00397 18.1059V8.64192C8.00397 7.84392 8.65586 7.19992 9.45654 7.19992Z" fill="#7289DA"/>
<path fill-rule="evenodd" clip-rule="evenodd" d="M16.2173 16.3421C16.2173 16.3421 15.9622 16.0411 15.7496 15.7751C16.6778 15.5161 17.0321 14.9421 17.0321 14.9421C16.7416 15.1311 16.4653 15.2641 16.2173 15.3551C15.863 15.5021 15.5229 15.6001 15.1898 15.6561C14.5096 15.7821 13.8861 15.7471 13.3546 15.6491C12.9507 15.5721 12.6035 15.4601 12.313 15.3481C12.1501 15.2851 11.9729 15.2081 11.7958 15.1101C11.7851 15.1031 11.7745 15.0978 11.7639 15.0926C11.7533 15.0873 11.7426 15.0821 11.732 15.0751C11.7178 15.0681 11.7107 15.0611 11.7037 15.0541C11.5761 14.9841 11.5053 14.9351 11.5053 14.9351C11.5053 14.9351 11.8454 15.4951 12.7453 15.7611C12.5327 16.0271 12.2705 16.3421 12.2705 16.3421C10.7046 16.2931 10.1094 15.2781 10.1094 15.2781C10.1094 13.0241 11.1297 11.1971 11.1297 11.1971C12.1501 10.4411 13.1208 10.4621 13.1208 10.4621L13.1917 10.5461C11.9162 10.9101 11.3281 11.4631 11.3281 11.4631C11.3281 11.4631 11.484 11.3791 11.7462 11.2601C12.5043 10.9311 13.1066 10.8401 13.3546 10.8191L13.3705 10.8164C13.4063 10.8104 13.438 10.8051 13.4751 10.8051C13.9073 10.7491 14.3962 10.7351 14.9064 10.7911C15.5795 10.8681 16.3023 11.0641 17.0392 11.4631C17.0392 11.4631 16.4794 10.9381 15.2749 10.5741L15.3741 10.4621C15.3741 10.4621 16.3448 10.4411 17.3651 11.1971C17.3651 11.1971 18.3855 13.0241 18.3855 15.2781C18.3855 15.2781 17.7832 16.2931 16.2173 16.3421ZM13.1222 13.2001C12.7215 13.2001 12.4051 13.5605 12.4051 14.0001C12.4051 14.4397 12.7285 14.8001 13.1222 14.8001C13.5229 14.8001 13.8392 14.4397 13.8392 14.0001C13.8463 13.5605 13.5229 13.2001 13.1222 13.2001ZM14.971 14.0001C14.971 13.5605 15.2874 13.2001 15.6881 13.2001C16.0888 13.2001 16.4051 13.5605 16.4051 14.0001C16.4051 14.4397 16.0888 14.8001 15.6881 14.8001C15.2944 14.8001 14.971 14.4397 14.971 14.0001Z" fill="#7289DA"/>
<path d="M14.0039 26C7.37649 26 2.00391 20.6274 2.00391 14H-1.99609C-1.99609 22.8366 5.16735 30 14.0039 30V26ZM26.0039 14C26.0039 20.6274 20.6313 26 14.0039 26V30C22.8405 30 30.0039 22.8366 30.0039 14H26.0039ZM14.0039 2C20.6313 2 26.0039 7.37258 26.0039 14H30.0039C30.0039 5.16344 22.8405 -2 14.0039 -2V2ZM14.0039 -2C5.16735 -2 -1.99609 5.16344 -1.99609 14H2.00391C2.00391 7.37258 7.37649 2 14.0039 2V-2Z" fill="#7289DA"/>
</svg>
