<svg width="25" height="24" viewBox="0 0 25 24" fill="none" xmlns="http://www.w3.org/2000/svg">
<path d="M6.94391 11.36C6.21409 11.36 5.50067 11.1436 4.89385 10.7381C4.28704 10.3326 3.81408 9.75634 3.53479 9.08208C3.25551 8.40782 3.18243 7.66589 3.32481 6.9501C3.46719 6.23431 3.81863 5.57681 4.33468 5.06076C4.85074 4.5447 5.50823 4.19326 6.22402 4.05088C6.93981 3.9085 7.68175 3.98158 8.35601 4.26087C9.03027 4.54015 9.60657 5.01311 10.012 5.61993C10.4175 6.22675 10.6339 6.94017 10.6339 7.66998C10.6339 8.15456 10.5385 8.63439 10.353 9.08208C10.1676 9.52978 9.89578 9.93656 9.55313 10.2792C9.21048 10.6219 8.8037 10.8937 8.35601 11.0791C7.90832 11.2645 7.42849 11.36 6.94391 11.36ZM6.94391 4.99998C6.41103 5 5.89016 5.15828 5.44737 5.45475C5.00457 5.75123 4.65981 6.17254 4.45682 6.66524C4.25382 7.15794 4.20173 7.69983 4.30715 8.22217C4.41258 8.74452 4.67077 9.22379 5.04898 9.59918C5.42718 9.97458 5.90836 10.2292 6.43148 10.3307C6.9546 10.4322 7.49609 10.3761 7.98726 10.1694C8.47843 9.96276 8.89715 9.61487 9.19032 9.16988C9.48348 8.72488 9.63787 8.20285 9.63391 7.66998C9.6326 7.31804 9.56198 6.9698 9.42608 6.64515C9.29019 6.3205 9.09168 6.02579 8.84189 5.77786C8.5921 5.52993 8.29592 5.33362 7.97026 5.20015C7.64461 5.06668 7.29585 4.99867 6.94391 4.99998Z" fill="white"/>
<path d="M17.0633 11.26C16.3326 11.262 15.6178 11.047 15.0095 10.6423C14.4011 10.2376 13.9266 9.66139 13.6461 8.98672C13.3656 8.31205 13.2916 7.56929 13.4337 6.85257C13.5758 6.13585 13.9274 5.47744 14.4441 4.96078C14.9607 4.44413 15.6191 4.09248 16.3358 3.95042C17.0526 3.80836 17.7953 3.88228 18.47 4.1628C19.1447 4.44333 19.7209 4.91784 20.1256 5.52618C20.5303 6.13453 20.7452 6.84933 20.7433 7.57999C20.7406 8.55518 20.3521 9.48967 19.6625 10.1792C18.9729 10.8688 18.0385 11.2574 17.0633 11.26ZM17.0633 4.88999C16.5308 4.88801 16.0098 5.0441 15.5661 5.33847C15.1224 5.63285 14.776 6.05227 14.5709 6.54363C14.3658 7.03498 14.3111 7.57616 14.4137 8.09863C14.5164 8.6211 14.7718 9.10134 15.1476 9.47855C15.5234 9.85575 16.0027 10.1129 16.5248 10.2175C17.0469 10.3222 17.5882 10.2695 18.0804 10.0662C18.5725 9.86287 18.9932 9.51809 19.2892 9.07551C19.5852 8.63293 19.7433 8.11245 19.7433 7.57999C19.7407 6.86909 19.4578 6.18791 18.956 5.68429C18.4543 5.18067 17.7742 4.89525 17.0633 4.88999Z" fill="white"/>
<path d="M6.94391 21.37C6.21409 21.37 5.50067 21.1536 4.89385 20.7481C4.28704 20.3427 3.81408 19.7664 3.53479 19.0921C3.25551 18.4178 3.18243 17.6759 3.32481 16.9601C3.46719 16.2443 3.81863 15.5868 4.33468 15.0708C4.85074 14.5547 5.50823 14.2033 6.22402 14.0609C6.93981 13.9185 7.68175 13.9916 8.35601 14.2709C9.03027 14.5502 9.60657 15.0231 10.012 15.6299C10.4175 16.2368 10.6339 16.9502 10.6339 17.68C10.6339 18.1646 10.5385 18.6444 10.353 19.0921C10.1676 19.5398 9.89578 19.9466 9.55313 20.2892C9.21048 20.6319 8.8037 20.9037 8.35601 21.0891C7.90832 21.2745 7.42849 21.37 6.94391 21.37ZM6.94391 15C6.41145 15 5.89097 15.158 5.44839 15.454C5.00581 15.7501 4.66103 16.1708 4.45773 16.6629C4.25443 17.155 4.20174 17.6964 4.30635 18.2185C4.41096 18.7406 4.66815 19.2198 5.04535 19.5956C5.42256 19.9714 5.90281 20.2269 6.42527 20.3295C6.94774 20.4322 7.48892 20.3775 7.98027 20.1723C8.47163 19.9672 8.89106 19.6209 9.18543 19.1772C9.4798 18.7335 9.63589 18.2124 9.63391 17.68C9.63391 17.3272 9.56426 16.9779 9.42895 16.6521C9.29365 16.3263 9.09534 16.0304 8.84542 15.7814C8.5955 15.5324 8.29888 15.3352 7.97257 15.2011C7.64626 15.067 7.29669 14.9987 6.94391 15Z" fill="white"/>
<path d="M17.0633 21.27C16.3326 21.272 15.6178 21.057 15.0095 20.6523C14.4011 20.2476 13.9266 19.6714 13.6461 18.9967C13.3656 18.3221 13.2916 17.5793 13.4337 16.8626C13.5758 16.1459 13.9274 15.4875 14.4441 14.9708C14.9607 14.4541 15.6191 14.1025 16.3358 13.9604C17.0526 13.8184 17.7953 13.8923 18.47 14.1728C19.1447 14.4533 19.7209 14.9278 20.1256 15.5362C20.5303 16.1445 20.7452 16.8593 20.7433 17.59C20.7406 18.5652 20.3521 19.4997 19.6625 20.1892C18.9729 20.8788 18.0385 21.2674 17.0633 21.27ZM17.0633 14.9C16.5308 14.898 16.0098 15.0541 15.5661 15.3485C15.1224 15.6429 14.776 16.0623 14.5709 16.5536C14.3658 17.045 14.3111 17.5862 14.4137 18.1086C14.5164 18.6311 14.7718 19.1114 15.1476 19.4886C15.5234 19.8658 16.0027 20.123 16.5248 20.2276C17.0469 20.3322 17.5882 20.2795 18.0804 20.0762C18.5725 19.8729 18.9932 19.5281 19.2892 19.0855C19.5852 18.6429 19.7433 18.1225 19.7433 17.59C19.7407 16.8791 19.4578 16.1979 18.956 15.6943C18.4543 15.1907 17.7742 14.9053 17.0633 14.9Z" fill="white"/>
</svg>
