<svg width="25" height="24" viewBox="0 0 25 24" fill="none" xmlns="http://www.w3.org/2000/svg">
<path d="M15.3538 11.62C14.4139 11.622 13.4945 11.3451 12.7121 10.8243C11.9296 10.3036 11.3193 9.56245 10.9582 8.69467C10.5972 7.8269 10.5017 6.87152 10.6838 5.94945C10.866 5.02739 11.3176 4.18008 11.9815 3.51478C12.6454 2.84948 13.4917 2.39609 14.4134 2.212C15.3351 2.02791 16.2907 2.12139 17.1592 2.48061C18.0277 2.83983 18.7702 3.44864 19.2925 4.22999C19.8149 5.01134 20.0938 5.9301 20.0938 6.86999C20.0938 8.12803 19.5947 9.3347 18.706 10.2252C17.8174 11.1157 16.6118 11.6173 15.3538 11.62V11.62ZM15.3538 3.61999C14.7101 3.61801 14.0804 3.80719 13.5444 4.16354C13.0084 4.51989 12.5903 5.02737 12.3431 5.62164C12.0959 6.21591 12.0306 6.8702 12.1557 7.50157C12.2808 8.13293 12.5905 8.71295 13.0457 9.16807C13.5008 9.62319 14.0808 9.93293 14.7122 10.058C15.3435 10.1831 15.9978 10.1179 16.5921 9.87067C17.1864 9.62344 17.6938 9.20533 18.0502 8.66934C18.4065 8.13335 18.5957 7.50362 18.5938 6.85999C18.5885 6.00323 18.2451 5.18322 17.6384 4.57833C17.0316 3.97343 16.2105 3.63261 15.3538 3.62999V3.61999Z" fill="white"/>
<path d="M17.8139 21.44H5.00391C4.80499 21.44 4.61423 21.361 4.47358 21.2203C4.33292 21.0797 4.25391 20.8889 4.25391 20.69C4.25391 20.4911 4.33292 20.3003 4.47358 20.1597C4.61423 20.019 4.80499 19.94 5.00391 19.94H17.8139C18.0128 19.94 18.2036 20.019 18.3442 20.1597C18.4849 20.3003 18.5639 20.4911 18.5639 20.69C18.5639 20.8889 18.4849 21.0797 18.3442 21.2203C18.2036 21.361 18.0128 21.44 17.8139 21.44V21.44Z" fill="white"/>
<path d="M11.3535 21.44C11.2839 21.4497 11.2132 21.4497 11.1435 21.44C10.9526 21.3843 10.7916 21.255 10.6959 21.0806C10.6003 20.9062 10.5778 20.701 10.6335 20.51L13.5335 10.51C13.5599 10.4147 13.6051 10.3257 13.6665 10.2482C13.7279 10.1707 13.8042 10.1062 13.8909 10.0587C13.9775 10.0111 14.0729 9.98146 14.1712 9.97138C14.2696 9.96131 14.369 9.97104 14.4635 10C14.653 10.058 14.8123 10.1876 14.9076 10.3613C15.0028 10.5351 15.0265 10.7391 14.9735 10.93L12.0735 20.93C12.0215 21.0794 11.9242 21.2088 11.7951 21.3002C11.666 21.3916 11.5117 21.4405 11.3535 21.44Z" fill="white"/>
</svg>
