<svg width="15" height="15" viewBox="0 0 15 15" fill="none" xmlns="http://www.w3.org/2000/svg">
<path d="M6.5625 0.269988C7.74918 0.269988 8.90922 0.621882 9.89592 1.28117C10.8826 1.94046 11.6516 2.87753 12.1058 3.97389C12.5599 5.07024 12.6787 6.27664 12.4472 7.44053C12.2157 8.60441 11.6443 9.67351 10.8051 10.5126C9.96602 11.3517 8.89693 11.9232 7.73304 12.1547C6.56915 12.3862 5.36275 12.2674 4.2664 11.8133C3.17004 11.3591 2.23297 10.5901 1.57368 9.60341C0.914391 8.61671 0.562497 7.45668 0.562497 6.26999C0.562496 4.67869 1.19464 3.15257 2.31986 2.02735C3.44507 0.902128 4.9712 0.269988 6.5625 0.269988ZM6.5625 10.8C7.45472 10.7921 8.32465 10.5203 9.06268 10.0189C9.80071 9.51742 10.3738 8.80876 10.7098 7.98218C11.0458 7.15559 11.1296 6.24806 10.9507 5.37391C10.7718 4.49977 10.3382 3.69813 9.70451 3.06999C9.07081 2.44185 8.26538 2.01532 7.3897 1.84413C6.51401 1.67295 5.60725 1.76476 4.78365 2.10802C3.96006 2.45127 3.25648 3.0306 2.76156 3.77302C2.26665 4.51544 2.00253 5.38773 2.0025 6.27999C2.0038 6.87657 2.12293 7.46701 2.35305 8.01742C2.58316 8.56784 2.91973 9.06738 3.34343 9.48736C3.76713 9.90734 4.26962 10.2395 4.82204 10.4648C5.37446 10.69 5.96593 10.8039 6.5625 10.8Z" fill="white"/>
<path d="M10.0032 9.50999C10.2012 9.5143 10.3903 9.59282 10.5332 9.72999L14.0932 13.29C14.2336 13.4306 14.3125 13.6212 14.3125 13.82C14.3125 14.0187 14.2336 14.2094 14.0932 14.35C14.0238 14.4255 13.9396 14.4857 13.8458 14.5269C13.752 14.5681 13.6506 14.5894 13.5482 14.5894C13.4457 14.5894 13.3443 14.5681 13.2505 14.5269C13.1567 14.4857 13.0725 14.4255 13.0032 14.35L9.43316 10.79C9.29271 10.6494 9.21382 10.4587 9.21382 10.26C9.21382 10.0612 9.29271 9.87062 9.43316 9.72999C9.5088 9.65731 9.59817 9.60043 9.69603 9.56266C9.7939 9.52488 9.8983 9.50698 10.0032 9.50999Z" fill="white"/>
</svg>
