<svg width="25" height="24" viewBox="0 0 25 24" fill="none" xmlns="http://www.w3.org/2000/svg">
<path d="M8.79398 9.47996C8.73152 9.49484 8.66644 9.49484 8.60398 9.47996C8.53969 9.45669 8.48155 9.41907 8.43398 9.36996C8.34467 9.27531 8.29492 9.1501 8.29492 9.01996C8.29492 8.88983 8.34467 8.76462 8.43398 8.66996C8.47844 8.61733 8.53329 8.57445 8.59511 8.54402C8.65692 8.5136 8.72435 8.49627 8.79318 8.49313C8.86201 8.49 8.93074 8.50112 8.99506 8.5258C9.05939 8.55048 9.11792 8.58819 9.16698 8.63656C9.21604 8.68493 9.25458 8.74292 9.28017 8.80689C9.30576 8.87086 9.31785 8.93942 9.31569 9.00829C9.31354 9.07715 9.29717 9.14482 9.26762 9.20706C9.23807 9.2693 9.19597 9.32476 9.14398 9.36996C9.10301 9.40328 9.05521 9.42718 9.00398 9.43996C8.93846 9.47076 8.86623 9.48452 8.79398 9.47996Z" fill="white"/>
<path d="M15.1739 9.47998C15.1114 9.49415 15.0464 9.49415 14.9839 9.47998C14.9227 9.45632 14.8679 9.41865 14.8239 9.36998C14.7753 9.32157 14.737 9.26385 14.7112 9.20027C14.6854 9.1367 14.6727 9.06858 14.6739 8.99999C14.6782 8.86569 14.7316 8.73763 14.8239 8.63999C14.871 8.59752 14.9251 8.56367 14.9839 8.53999C15.0756 8.50255 15.1761 8.49208 15.2735 8.50979C15.3709 8.52751 15.4613 8.57268 15.5339 8.63999C15.6234 8.73862 15.6732 8.86683 15.6739 8.99999C15.6699 9.1295 15.6203 9.25345 15.5339 9.34999C15.4353 9.43841 15.3062 9.48503 15.1739 9.47998Z" fill="white"/>
<path d="M8.79398 15.48C8.65884 15.4797 8.52937 15.4257 8.43398 15.33C8.34467 15.2353 8.29492 15.1101 8.29492 14.98C8.29492 14.8498 8.34467 14.7246 8.43398 14.63C8.47844 14.5774 8.53329 14.5345 8.59511 14.504C8.65692 14.4736 8.72435 14.4563 8.79318 14.4532C8.86201 14.45 8.93074 14.4611 8.99506 14.4858C9.05939 14.5105 9.11792 14.5482 9.16698 14.5966C9.21604 14.645 9.25458 14.7029 9.28017 14.7669C9.30576 14.8309 9.31785 14.8994 9.31569 14.9683C9.31354 15.0372 9.29717 15.1048 9.26762 15.1671C9.23807 15.2293 9.19597 15.2848 9.14398 15.33C9.09933 15.378 9.04513 15.4162 8.98485 15.442C8.92457 15.4679 8.85955 15.4808 8.79398 15.48Z" fill="white"/>
<path d="M15.1749 15.48C15.1123 15.4942 15.0474 15.4942 14.9849 15.48C14.9237 15.4563 14.8689 15.4187 14.8249 15.37C14.7772 15.3251 14.7397 15.2706 14.7149 15.21C14.7056 15.147 14.7056 15.083 14.7149 15.02C14.7044 14.9571 14.7044 14.8929 14.7149 14.83C14.7397 14.7695 14.7772 14.7149 14.8249 14.67C14.8689 14.6213 14.9237 14.5837 14.9849 14.56C15.0773 14.5226 15.1786 14.5131 15.2763 14.5326C15.3741 14.5522 15.464 14.5999 15.5349 14.67C15.6242 14.7647 15.6739 14.8899 15.6739 15.02C15.6739 15.1501 15.6242 15.2754 15.5349 15.37C15.4851 15.4112 15.4276 15.4421 15.3658 15.461C15.3041 15.4798 15.2392 15.4863 15.1749 15.48Z" fill="white"/>
<path d="M17.0044 20.52H7.00443C6.54144 20.5226 6.08252 20.4334 5.65425 20.2574C5.22599 20.0815 4.83689 19.8223 4.5095 19.4949C4.18211 19.1675 3.92293 18.7784 3.74697 18.3502C3.57102 17.9219 3.48178 17.463 3.48443 17V6.99998C3.48178 6.53698 3.57102 6.07806 3.74697 5.6498C3.92293 5.22153 4.18211 4.83244 4.5095 4.50505C4.83689 4.17765 5.22599 3.91847 5.65425 3.74252C6.08252 3.56656 6.54144 3.47732 7.00443 3.47998H17.0044C17.4674 3.47732 17.9263 3.56656 18.3546 3.74252C18.7829 3.91847 19.172 4.17765 19.4994 4.50505C19.8268 4.83244 20.0859 5.22153 20.2619 5.6498C20.4378 6.07806 20.5271 6.53698 20.5244 6.99998V17C20.5271 17.463 20.4378 17.9219 20.2619 18.3502C20.0859 18.7784 19.8268 19.1675 19.4994 19.4949C19.172 19.8223 18.7829 20.0815 18.3546 20.2574C17.9263 20.4334 17.4674 20.5226 17.0044 20.52ZM7.00443 4.47998C6.67276 4.47731 6.34387 4.54068 6.03693 4.66637C5.72998 4.79207 5.45112 4.97759 5.21658 5.21213C4.98205 5.44667 4.79653 5.72553 4.67083 6.03247C4.54513 6.33942 4.48177 6.6683 4.48443 6.99998V17C4.48177 17.3317 4.54513 17.6605 4.67083 17.9675C4.79653 18.2744 4.98205 18.5533 5.21658 18.7878C5.45112 19.0224 5.72998 19.2079 6.03693 19.3336C6.34387 19.4593 6.67276 19.5226 7.00443 19.52H17.0044C17.6675 19.52 18.3034 19.2566 18.7722 18.7877C19.241 18.3189 19.5044 17.683 19.5044 17.02V6.99998C19.5071 6.66999 19.4444 6.34275 19.3199 6.03713C19.1954 5.7315 19.0117 5.45354 18.7793 5.21927C18.5469 4.985 18.2704 4.79906 17.9658 4.67217C17.6612 4.54529 17.3344 4.47997 17.0044 4.47998H7.00443Z" fill="white"/>
</svg>
