<svg width="29" height="28" viewBox="0 0 29 28" fill="none" xmlns="http://www.w3.org/2000/svg">
<path fill-rule="evenodd" clip-rule="evenodd" d="M2.00391 14C2.00391 20.6274 7.37649 26 14.0039 26C20.6313 26 26.0039 20.6274 26.0039 14C26.0039 7.37258 20.6313 2 14.0039 2C7.37649 2 2.00391 7.37258 2.00391 14ZM7.23036 10.1044L8.16948 7.60001H21.0015V16.3659L17.2452 20.1208H14.4285L12.5513 22H10.6722V20.1208H7.23036V10.1044Z" fill="#9146FF"/>
<path fill-rule="evenodd" clip-rule="evenodd" d="M9.41992 8.85144H19.749V15.7385L17.5576 17.9302H14.1152L12.2385 19.8068V17.9302H9.41992V8.85144ZM12.8631 15.1133H14.1152V11.3572H12.8631V15.1133ZM17.5575 15.1133H16.3058V11.3572H17.5575V15.1133Z" fill="#9146FF"/>
<path d="M14.0039 26C7.37649 26 2.00391 20.6274 2.00391 14H-1.99609C-1.99609 22.8366 5.16735 30 14.0039 30V26ZM26.0039 14C26.0039 20.6274 20.6313 26 14.0039 26V30C22.8405 30 30.0039 22.8366 30.0039 14H26.0039ZM14.0039 2C20.6313 2 26.0039 7.37258 26.0039 14H30.0039C30.0039 5.16344 22.8405 -2 14.0039 -2V2ZM14.0039 -2C5.16735 -2 -1.99609 5.16344 -1.99609 14H2.00391C2.00391 7.37258 7.37649 2 14.0039 2V-2Z" fill="#9146FF"/>
</svg>
