<svg width="29" height="28" viewBox="0 0 29 28" fill="none" xmlns="http://www.w3.org/2000/svg">
<path fill-rule="evenodd" clip-rule="evenodd" d="M14.0039 2C7.37649 2 2.00391 7.37258 2.00391 14C2.00391 20.6274 7.37649 26 14.0039 26C20.6313 26 26.0039 20.6274 26.0039 14C26.0039 7.37258 20.6313 2 14.0039 2ZM13.6697 12.169L13.6445 11.7537C13.569 10.6775 14.2321 9.69456 15.2813 9.31323C15.6674 9.17765 16.3221 9.1607 16.7502 9.27934C16.9181 9.33018 17.237 9.49966 17.4637 9.65219L17.875 9.93184L18.3282 9.78778C18.58 9.71151 18.9158 9.5844 19.0669 9.49966C19.2096 9.42339 19.3355 9.38102 19.3355 9.40645C19.3355 9.5505 19.0249 10.042 18.7647 10.3132C18.4122 10.6945 18.5129 10.7284 19.2264 10.4742C19.6544 10.3301 19.6628 10.3301 19.5789 10.4911C19.5285 10.5759 19.2683 10.8725 18.9913 11.1436C18.5213 11.6097 18.4961 11.6605 18.4961 12.0503C18.4961 12.652 18.2107 13.9062 17.9253 14.5925C17.3965 15.8806 16.2634 17.211 15.1302 17.8805C13.5354 18.8211 11.4118 19.0584 9.6239 18.5075C9.02794 18.3211 8.00391 17.8466 8.00391 17.7618C8.00391 17.7364 8.31448 17.7025 8.69219 17.694C9.48121 17.6771 10.2702 17.4568 10.9417 17.067L11.395 16.7958L10.8746 16.6178C10.1359 16.3636 9.47281 15.7789 9.30494 15.2281C9.25458 15.0501 9.27136 15.0417 9.74141 15.0417L10.2283 15.0332L9.81696 14.8383C9.33012 14.5925 8.88525 14.1773 8.66701 13.7536C8.50753 13.4486 8.30608 12.6774 8.36484 12.6181C8.38163 12.5927 8.55789 12.6435 8.75934 12.7113C9.33851 12.9232 9.41406 12.8723 9.07831 12.5164C8.44878 11.8724 8.25572 10.9148 8.55789 10.0081L8.70059 9.60135L9.25458 10.1522C10.3877 11.2623 11.7223 11.9232 13.25 12.1181L13.6697 12.169Z" fill="#1DA1F2"/>
<path d="M14.0039 26C7.37649 26 2.00391 20.6274 2.00391 14H-1.99609C-1.99609 22.8366 5.16735 30 14.0039 30V26ZM26.0039 14C26.0039 20.6274 20.6313 26 14.0039 26V30C22.8405 30 30.0039 22.8366 30.0039 14H26.0039ZM14.0039 2C20.6313 2 26.0039 7.37258 26.0039 14H30.0039C30.0039 5.16344 22.8405 -2 14.0039 -2V2ZM14.0039 -2C5.16735 -2 -1.99609 5.16344 -1.99609 14H2.00391C2.00391 7.37258 7.37649 2 14.0039 2V-2Z" fill="#1DA1F2"/>
</svg>
